<svg xmlns="http://www.w3.org/2000/svg" viewBox="0 0 733.81 150.58"><defs><style>.cls-1{fill:none;stroke:#b2566f;stroke-linecap:round;stroke-linejoin:round;stroke-width:3px;}</style></defs><title>资源 6</title><g id="图层_2" data-name="图层 2"><g id="图层_3" data-name="图层 3"><path class="cls-1" d="M28.48,148.85c7.13-.16,13.89-7.09,13.54-14.65-.13-2.93.18-5.84.16-8.76,0-5,.21-10.1.1-15.13-.06-2.71.35-5.51-.79-8.09a14.11,14.11,0,0,0-5.9-7,2.72,2.72,0,0,1-1.44-1.45"/><path class="cls-1" d="M10.39,94.21C9,95.75,7.14,96.83,5.67,98.35a12.29,12.29,0,0,0-3.74,8.57c0,9.55-.53,19.11-.41,28.67.09,7.11,6.13,13.26,12.89,13.4,4.69.1,9.38,0,14.07-.14"/><path class="cls-1" d="M27,69.47c-2.64-1.47-5.46-1-8.21-.37-.91.23-1.44,1.4-1.49,2.47-.06,1.24,0,2.48-.06,3.72a3.72,3.72,0,0,1-2.56,3.61C10.34,80.6,9,82.39,8.89,86.8c-.05,1.5-.09,3-.05,4.51A2.61,2.61,0,0,0,12,93.94a198.93,198.93,0,0,1,20.57-.37c1.89,0,3.28-1,3.34-2.84a40.83,40.83,0,0,0-.09-6,6.91,6.91,0,0,0-4.94-6c-2.9-1-3.07-1.27-3.17-4.22-.05-1.6.76-3.39-.7-4.77"/><path class="cls-1" d="M31.48,119.05a2.71,2.71,0,0,0,2.38,1.09C36.41,120,39,120,41.55,120"/><path class="cls-1" d="M31.88,107.11a1.76,1.76,0,0,0,1.72.66c2.74-.09,5.48-.08,8.23-.12"/><path class="cls-1" d="M41.41,132.21c-2.56,0-5.13.08-7.7.08a2.28,2.28,0,0,0-2.13.83"/><path class="cls-1" d="M78.48,148.85c7.13-.16,13.89-7.09,13.54-14.65-.13-2.93.18-5.84.16-8.76,0-5,.21-10.1.1-15.13-.06-2.71.35-5.51-.79-8.09a14.11,14.11,0,0,0-5.9-7,2.72,2.72,0,0,1-1.44-1.45"/><path class="cls-1" d="M60.39,94.21c-1.43,1.54-3.25,2.62-4.72,4.14a12.29,12.29,0,0,0-3.74,8.57c0,9.55-.53,19.11-.41,28.67.09,7.11,6.13,13.26,12.89,13.4,4.69.1,9.38,0,14.07-.14"/><path class="cls-1" d="M77,69.47c-2.64-1.47-5.46-1-8.21-.37-.91.23-1.44,1.4-1.49,2.47-.06,1.24,0,2.48-.06,3.72a3.72,3.72,0,0,1-2.56,3.61c-4.34,1.7-5.66,3.49-5.79,7.9,0,1.5-.09,3,0,4.51A2.61,2.61,0,0,0,62,93.94a198.93,198.93,0,0,1,20.57-.37c1.89,0,3.28-1,3.34-2.84a40.83,40.83,0,0,0-.09-6,6.91,6.91,0,0,0-4.94-6c-2.9-1-3.07-1.27-3.17-4.22,0-1.6.76-3.39-.7-4.77"/><path class="cls-1" d="M81.48,119.05a2.71,2.71,0,0,0,2.38,1.09C86.41,120,89,120,91.55,120"/><path class="cls-1" d="M81.88,107.11a1.76,1.76,0,0,0,1.72.66c2.74-.09,5.48-.08,8.23-.12"/><path class="cls-1" d="M91.41,132.21c-2.56,0-5.13.08-7.7.08a2.28,2.28,0,0,0-2.13.83"/><path class="cls-1" d="M128.48,148.85c7.13-.16,13.89-7.09,13.54-14.65-.13-2.93.18-5.84.16-8.76,0-5,.21-10.1.1-15.13-.06-2.71.35-5.51-.79-8.09a14.11,14.11,0,0,0-5.9-7,2.72,2.72,0,0,1-1.44-1.45"/><path class="cls-1" d="M110.39,94.21c-1.43,1.54-3.25,2.62-4.72,4.14a12.29,12.29,0,0,0-3.74,8.57c0,9.55-.53,19.11-.41,28.67.09,7.11,6.13,13.26,12.89,13.4,4.69.1,9.38,0,14.07-.14"/><path class="cls-1" d="M127,69.47c-2.64-1.47-5.46-1-8.21-.37-.91.23-1.44,1.4-1.49,2.47-.06,1.24,0,2.48-.06,3.72a3.72,3.72,0,0,1-2.56,3.61c-4.34,1.7-5.66,3.49-5.79,7.9,0,1.5-.09,3,0,4.51A2.61,2.61,0,0,0,112,93.94a198.93,198.93,0,0,1,20.57-.37c1.89,0,3.28-1,3.34-2.84a40.83,40.83,0,0,0-.09-6,6.91,6.91,0,0,0-4.94-6c-2.9-1-3.07-1.27-3.17-4.22,0-1.6.76-3.39-.7-4.77"/><path class="cls-1" d="M131.48,119.05a2.71,2.71,0,0,0,2.38,1.09c2.55-.18,5.13-.11,7.69-.14"/><path class="cls-1" d="M131.88,107.11a1.76,1.76,0,0,0,1.72.66c2.74-.09,5.48-.08,8.23-.12"/><path class="cls-1" d="M141.41,132.21c-2.56,0-5.13.08-7.7.08a2.28,2.28,0,0,0-2.13.83"/><path class="cls-1" d="M178.48,148.85c7.13-.16,13.89-7.09,13.54-14.65-.13-2.93.18-5.84.16-8.76,0-5,.21-10.1.1-15.13-.06-2.71.35-5.51-.79-8.09a14.11,14.11,0,0,0-5.9-7,2.72,2.72,0,0,1-1.44-1.45"/><path class="cls-1" d="M160.39,94.21c-1.43,1.54-3.25,2.62-4.72,4.14a12.29,12.29,0,0,0-3.74,8.57c0,9.55-.53,19.11-.41,28.67.09,7.11,6.13,13.26,12.89,13.4,4.69.1,9.38,0,14.07-.14"/><path class="cls-1" d="M177,69.47c-2.64-1.47-5.46-1-8.21-.37-.91.23-1.44,1.4-1.49,2.47-.06,1.24,0,2.48-.06,3.72a3.72,3.72,0,0,1-2.56,3.61c-4.34,1.7-5.66,3.49-5.79,7.9,0,1.5-.09,3,0,4.51A2.61,2.61,0,0,0,162,93.94a198.93,198.93,0,0,1,20.57-.37c1.89,0,3.28-1,3.34-2.84a40.83,40.83,0,0,0-.09-6,6.91,6.91,0,0,0-4.94-6c-2.9-1-3.07-1.27-3.17-4.22,0-1.6.76-3.39-.7-4.77"/><path class="cls-1" d="M181.48,119.05a2.71,2.71,0,0,0,2.38,1.09c2.55-.18,5.13-.11,7.69-.14"/><path class="cls-1" d="M181.88,107.11a1.76,1.76,0,0,0,1.72.66c2.74-.09,5.48-.08,8.23-.12"/><path class="cls-1" d="M191.41,132.21c-2.56,0-5.13.08-7.7.08a2.28,2.28,0,0,0-2.13.83"/><path class="cls-1" d="M228.48,148.85c7.13-.16,13.89-7.09,13.54-14.65-.13-2.93.18-5.84.16-8.76,0-5,.21-10.1.1-15.13-.06-2.71.35-5.51-.79-8.09a14.11,14.11,0,0,0-5.9-7,2.72,2.72,0,0,1-1.44-1.45"/><path class="cls-1" d="M210.39,94.21c-1.43,1.54-3.25,2.62-4.72,4.14a12.29,12.29,0,0,0-3.74,8.57c0,9.55-.53,19.11-.41,28.67.09,7.11,6.13,13.26,12.89,13.4,4.69.1,9.38,0,14.07-.14"/><path class="cls-1" d="M227,69.47c-2.64-1.47-5.46-1-8.21-.37-.91.23-1.44,1.4-1.49,2.47-.06,1.24,0,2.48-.06,3.72a3.72,3.72,0,0,1-2.56,3.61c-4.34,1.7-5.66,3.49-5.79,7.9,0,1.5-.09,3,0,4.51A2.61,2.61,0,0,0,212,93.94a198.93,198.93,0,0,1,20.57-.37c1.89,0,3.28-1,3.34-2.84a40.83,40.83,0,0,0-.09-6,6.91,6.91,0,0,0-4.94-6c-2.9-1-3.07-1.27-3.17-4.22,0-1.6.76-3.39-.7-4.77"/><path class="cls-1" d="M231.48,119.05a2.71,2.71,0,0,0,2.38,1.09c2.55-.18,5.13-.11,7.69-.14"/><path class="cls-1" d="M231.88,107.11a1.76,1.76,0,0,0,1.72.66c2.74-.09,5.48-.08,8.23-.12"/><path class="cls-1" d="M241.41,132.21c-2.56,0-5.13.08-7.7.08a2.28,2.28,0,0,0-2.13.83"/><path class="cls-1" d="M278.48,148.85c7.13-.16,13.89-7.09,13.54-14.65-.13-2.93.18-5.84.16-8.76,0-5,.21-10.1.1-15.13-.06-2.71.35-5.51-.79-8.09a14.11,14.11,0,0,0-5.9-7,2.72,2.72,0,0,1-1.44-1.45"/><path class="cls-1" d="M260.39,94.21c-1.43,1.54-3.25,2.62-4.72,4.14a12.29,12.29,0,0,0-3.74,8.57c0,9.55-.53,19.11-.41,28.67.09,7.11,6.13,13.26,12.89,13.4,4.69.1,9.38,0,14.07-.14"/><path class="cls-1" d="M277,69.47c-2.64-1.47-5.46-1-8.21-.37-.91.23-1.44,1.4-1.49,2.47-.06,1.24,0,2.48-.06,3.72a3.72,3.72,0,0,1-2.56,3.61c-4.34,1.7-5.66,3.49-5.79,7.9-.05,1.5-.09,3-.05,4.51A2.61,2.61,0,0,0,262,93.94a198.93,198.93,0,0,1,20.57-.37c1.89,0,3.28-1,3.34-2.84a40.83,40.83,0,0,0-.09-6,6.91,6.91,0,0,0-4.94-6c-2.9-1-3.07-1.27-3.17-4.22-.05-1.6.76-3.39-.7-4.77"/><path class="cls-1" d="M281.48,119.05a2.71,2.71,0,0,0,2.38,1.09c2.55-.18,5.13-.11,7.69-.14"/><path class="cls-1" d="M281.88,107.11a1.76,1.76,0,0,0,1.72.66c2.74-.09,5.48-.08,8.23-.12"/><path class="cls-1" d="M291.41,132.21c-2.56,0-5.13.08-7.7.08a2.28,2.28,0,0,0-2.13.83"/><path class="cls-1" d="M397.45,24.19c1.34-7-4-15.07-11.48-16.32-2.89-.48-5.67-1.4-8.53-2-4.94-1-9.83-2.33-14.77-3.28-2.66-.51-5.31-1.5-8.08-.93a14.14,14.14,0,0,0-8,4.3,2.66,2.66,0,0,1-1.72,1.11"/><path class="cls-1" d="M340.23,30.39c1.2,1.73,1.87,3.74,3.06,5.49a12.29,12.29,0,0,0,7.59,5.46c9.33,2,18.57,4.53,27.94,6.42,7,1.41,14.25-3.2,15.81-9.78,1.08-4.57,1.94-9.18,2.82-13.79"/><path class="cls-1" d="M319.53,9c-2,2.27-2.17,5.12-2.08,8,0,.94,1.06,1.7,2.1,2s2.42.54,3.62.83a3.73,3.73,0,0,1,3,3.26c.75,4.6,2.23,6.27,6.51,7.33,1.46.36,2.92.71,4.4,1a2.61,2.61,0,0,0,3.23-2.52,194.83,194.83,0,0,1,4-20.2c.42-1.83-.31-3.42-2.08-3.85a39.34,39.34,0,0,0-5.85-1.17,6.9,6.9,0,0,0-6.95,3.56c-1.57,2.63-1.88,2.73-4.79,2.21C323,9,321.44,7.88,319.79,9"/><path class="cls-1" d="M370,11.67a1.76,1.76,0,0,0,1-1.37c.24-1.67.64-3.3,1-5"/><path class="cls-1" d="M358.23,8.88a1.17,1.17,0,0,0,.68-1c.32-1.8.71-3.58,1.07-5.37"/><path class="cls-1" d="M383.9,8.05c-.32,1.61-.64,3.21-1,4.81a1.48,1.48,0,0,0,.23,1.45"/><path class="cls-1" d="M378.48,148.85c7.13-.16,13.89-7.09,13.54-14.65-.13-2.93.18-5.84.16-8.76,0-5,.21-10.1.1-15.13-.06-2.71.35-5.51-.79-8.09a14.11,14.11,0,0,0-5.9-7,2.72,2.72,0,0,1-1.44-1.45"/><path class="cls-1" d="M360.39,94.21c-1.43,1.54-3.25,2.62-4.72,4.14a12.29,12.29,0,0,0-3.74,8.57c0,9.55-.53,19.11-.41,28.67.09,7.11,6.13,13.26,12.89,13.4,4.69.1,9.38,0,14.07-.14"/><path class="cls-1" d="M377,69.47c-2.64-1.47-5.46-1-8.21-.37-.91.23-1.44,1.4-1.49,2.47-.06,1.24,0,2.48-.06,3.72a3.72,3.72,0,0,1-2.56,3.61c-4.34,1.7-5.66,3.49-5.79,7.9-.05,1.5-.09,3-.05,4.51A2.61,2.61,0,0,0,362,93.94a198.93,198.93,0,0,1,20.57-.37c1.89,0,3.28-1,3.34-2.84a40.83,40.83,0,0,0-.09-6,6.91,6.91,0,0,0-4.94-6c-2.9-1-3.07-1.27-3.17-4.22-.05-1.6.76-3.39-.7-4.77"/><path class="cls-1" d="M381.48,119.05a2.71,2.71,0,0,0,2.38,1.09c2.55-.18,5.13-.11,7.69-.14"/><path class="cls-1" d="M381.88,107.11a1.76,1.76,0,0,0,1.72.66c2.74-.09,5.48-.08,8.23-.12"/><path class="cls-1" d="M391.41,132.21c-2.56,0-5.13.08-7.7.08a2.28,2.28,0,0,0-2.13.83"/><path class="cls-1" d="M428.48,148.85c7.13-.16,13.89-7.09,13.54-14.65-.13-2.93.18-5.84.16-8.76,0-5,.21-10.1.1-15.13-.06-2.71.35-5.51-.79-8.09a14.11,14.11,0,0,0-5.9-7,2.72,2.72,0,0,1-1.44-1.45"/><path class="cls-1" d="M410.39,94.21c-1.43,1.54-3.25,2.62-4.72,4.14a12.29,12.29,0,0,0-3.74,8.57c0,9.55-.53,19.11-.41,28.67.09,7.11,6.13,13.26,12.89,13.4,4.69.1,9.38,0,14.07-.14"/><path class="cls-1" d="M427,69.47c-2.64-1.47-5.46-1-8.21-.37-.91.23-1.44,1.4-1.49,2.47-.06,1.24,0,2.48-.06,3.72a3.72,3.72,0,0,1-2.56,3.61c-4.34,1.7-5.66,3.49-5.79,7.9-.05,1.5-.09,3-.05,4.51A2.61,2.61,0,0,0,412,93.94a198.93,198.93,0,0,1,20.57-.37c1.89,0,3.28-1,3.34-2.84a40.83,40.83,0,0,0-.09-6,6.91,6.91,0,0,0-4.94-6c-2.9-1-3.07-1.27-3.17-4.22-.05-1.6.76-3.39-.7-4.77"/><path class="cls-1" d="M431.48,119.05a2.71,2.71,0,0,0,2.38,1.09c2.55-.18,5.13-.11,7.69-.14"/><path class="cls-1" d="M431.88,107.11a1.76,1.76,0,0,0,1.72.66c2.74-.09,5.48-.08,8.23-.12"/><path class="cls-1" d="M441.41,132.21c-2.56,0-5.13.08-7.7.08a2.28,2.28,0,0,0-2.13.83"/><path class="cls-1" d="M478.48,148.85c7.13-.16,13.89-7.09,13.54-14.65-.13-2.93.18-5.84.16-8.76,0-5,.21-10.1.1-15.13-.06-2.71.35-5.51-.79-8.09a14.11,14.11,0,0,0-5.9-7,2.72,2.72,0,0,1-1.44-1.45"/><path class="cls-1" d="M460.39,94.21c-1.43,1.54-3.25,2.62-4.72,4.14a12.29,12.29,0,0,0-3.74,8.57c0,9.55-.53,19.11-.41,28.67.09,7.11,6.13,13.26,12.89,13.4,4.69.1,9.38,0,14.07-.14"/><path class="cls-1" d="M477,69.47c-2.64-1.47-5.46-1-8.21-.37-.91.23-1.44,1.4-1.49,2.47-.06,1.24,0,2.48-.06,3.72a3.72,3.72,0,0,1-2.56,3.61c-4.34,1.7-5.66,3.49-5.79,7.9-.05,1.5-.09,3-.05,4.51A2.61,2.61,0,0,0,462,93.94a198.93,198.93,0,0,1,20.57-.37c1.89,0,3.28-1,3.34-2.84a40.83,40.83,0,0,0-.09-6,6.91,6.91,0,0,0-4.94-6c-2.9-1-3.07-1.27-3.17-4.22-.05-1.6.76-3.39-.7-4.77"/><path class="cls-1" d="M481.48,119.05a2.71,2.71,0,0,0,2.38,1.09c2.55-.18,5.13-.11,7.69-.14"/><path class="cls-1" d="M481.88,107.11a1.76,1.76,0,0,0,1.72.66c2.74-.09,5.48-.08,8.23-.12"/><path class="cls-1" d="M491.41,132.21c-2.56,0-5.13.08-7.7.08a2.28,2.28,0,0,0-2.13.83"/><path class="cls-1" d="M531.52,147.89c6.43,3.08,15.59,0,18.71-6.93,1.21-2.67,2.81-5.12,4.11-7.74,2.25-4.51,4.76-8.9,6.95-13.44,1.17-2.44,2.8-4.75,3-7.57a14.15,14.15,0,0,0-2.1-8.88,2.64,2.64,0,0,1-.63-1.94"/><path class="cls-1" d="M540.16,91c-2,.72-4.09.86-6.09,1.55a12.28,12.28,0,0,0-7.21,5.94c-4.37,8.5-9.14,16.8-13.37,25.37-3.14,6.38-.54,14.6,5.42,17.79,4.14,2.21,8.37,4.22,12.61,6.26"/><path class="cls-1" d="M566.18,76.45c-1.69-2.5-4.4-3.41-7.15-4-.92-.21-1.92.6-2.46,1.53s-1.14,2.2-1.73,3.28a3.74,3.74,0,0,1-3.92,2.07c-4.64-.46-6.63.54-8.74,4.41-.72,1.32-1.44,2.64-2.09,4a2.61,2.61,0,0,0,1.61,3.77,198.77,198.77,0,0,1,18.51,9c1.67.87,3.38.58,4.26-1a39.62,39.62,0,0,0,2.62-5.36,6.89,6.89,0,0,0-1.66-7.62c-2.14-2.19-2.16-2.53-.91-5.2.68-1.45,2.21-2.69,1.53-4.57"/><path class="cls-1" d="M543.17,119.82a4.12,4.12,0,0,0,2.49,3.12c3.61,1.54,7.07,3.41,10.58,5.15"/><path class="cls-1" d="M549.14,109.7c.16,1.09.85,1.6,1.85,2.07,3.73,1.74,7.4,3.62,11.09,5.44"/><path class="cls-1" d="M550.58,138.91c-3.29-1.62-6.6-3.23-9.88-4.9-1.07-.54-2.08-.95-3.26-.32"/><path class="cls-1" d="M618.48,148.85c7.13-.16,13.89-7.09,13.54-14.65-.13-2.93.18-5.84.16-8.76,0-5,.21-10.1.1-15.13-.06-2.71.35-5.51-.79-8.09a14.11,14.11,0,0,0-5.9-7,2.72,2.72,0,0,1-1.44-1.45"/><path class="cls-1" d="M600.39,94.21c-1.43,1.54-3.25,2.62-4.72,4.14a12.29,12.29,0,0,0-3.74,8.57c0,9.55-.53,19.11-.41,28.67.09,7.11,6.13,13.26,12.89,13.4,4.69.1,9.38,0,14.07-.14"/><path class="cls-1" d="M617,69.47c-2.64-1.47-5.46-1-8.21-.37-.91.23-1.44,1.4-1.49,2.47-.06,1.24,0,2.48-.06,3.72a3.72,3.72,0,0,1-2.56,3.61c-4.34,1.7-5.66,3.49-5.79,7.9,0,1.5-.09,3,0,4.51A2.61,2.61,0,0,0,602,93.94a198.93,198.93,0,0,1,20.57-.37c1.89,0,3.28-1,3.34-2.84a40.83,40.83,0,0,0-.09-6,6.91,6.91,0,0,0-4.94-6c-2.9-1-3.07-1.27-3.17-4.22-.05-1.6.76-3.39-.7-4.77"/><path class="cls-1" d="M621.48,119.05a2.71,2.71,0,0,0,2.38,1.09c2.55-.18,5.13-.11,7.69-.14"/><path class="cls-1" d="M621.88,107.11a1.76,1.76,0,0,0,1.72.66c2.74-.09,5.48-.08,8.23-.12"/><path class="cls-1" d="M631.41,132.21c-2.56,0-5.13.08-7.7.08a2.28,2.28,0,0,0-2.13.83"/><path class="cls-1" d="M668.48,148.85c7.13-.16,13.89-7.09,13.54-14.65-.13-2.93.18-5.84.16-8.76,0-5,.21-10.1.1-15.13-.06-2.71.35-5.51-.79-8.09a14.11,14.11,0,0,0-5.9-7,2.72,2.72,0,0,1-1.44-1.45"/><path class="cls-1" d="M650.39,94.21c-1.43,1.54-3.25,2.62-4.72,4.14a12.29,12.29,0,0,0-3.74,8.57c0,9.55-.53,19.11-.41,28.67.09,7.11,6.13,13.26,12.89,13.4,4.69.1,9.38,0,14.07-.14"/><path class="cls-1" d="M667,69.47c-2.64-1.47-5.46-1-8.21-.37-.91.23-1.44,1.4-1.49,2.47-.06,1.24,0,2.48-.06,3.72a3.72,3.72,0,0,1-2.56,3.61c-4.34,1.7-5.66,3.49-5.79,7.9,0,1.5-.09,3,0,4.51A2.61,2.61,0,0,0,652,93.94a198.93,198.93,0,0,1,20.57-.37c1.89,0,3.28-1,3.34-2.84a40.83,40.83,0,0,0-.09-6,6.91,6.91,0,0,0-4.94-6c-2.9-1-3.07-1.27-3.17-4.22-.05-1.6.76-3.39-.7-4.77"/><path class="cls-1" d="M671.48,119.05a2.71,2.71,0,0,0,2.38,1.09c2.55-.18,5.13-.11,7.69-.14"/><path class="cls-1" d="M671.88,107.11a1.76,1.76,0,0,0,1.72.66c2.74-.09,5.48-.08,8.23-.12"/><path class="cls-1" d="M681.41,132.21c-2.56,0-5.13.08-7.7.08a2.28,2.28,0,0,0-2.13.83"/><path class="cls-1" d="M718.48,148.85c7.13-.16,13.89-7.09,13.54-14.65-.13-2.93.18-5.84.16-8.76,0-5,.21-10.1.1-15.13-.06-2.71.35-5.51-.79-8.09a14.11,14.11,0,0,0-5.9-7,2.72,2.72,0,0,1-1.44-1.45"/><path class="cls-1" d="M700.39,94.21c-1.43,1.54-3.25,2.62-4.72,4.14a12.29,12.29,0,0,0-3.74,8.57c0,9.55-.53,19.11-.41,28.67.09,7.11,6.13,13.26,12.89,13.4,4.69.1,9.38,0,14.07-.14"/><path class="cls-1" d="M717,69.47c-2.64-1.47-5.46-1-8.21-.37-.91.23-1.44,1.4-1.49,2.47-.06,1.24,0,2.48-.06,3.72a3.72,3.72,0,0,1-2.56,3.61c-4.34,1.7-5.66,3.49-5.79,7.9,0,1.5-.09,3,0,4.51A2.61,2.61,0,0,0,702,93.94a198.93,198.93,0,0,1,20.57-.37c1.89,0,3.28-1,3.34-2.84a40.83,40.83,0,0,0-.09-6,6.91,6.91,0,0,0-4.94-6c-2.9-1-3.07-1.27-3.17-4.22-.05-1.6.76-3.39-.7-4.77"/><path class="cls-1" d="M721.48,119.05a2.71,2.71,0,0,0,2.38,1.09c2.55-.18,5.13-.11,7.69-.14"/><path class="cls-1" d="M721.88,107.11a1.76,1.76,0,0,0,1.72.66c2.74-.09,5.48-.08,8.23-.12"/><path class="cls-1" d="M731.41,132.21c-2.56,0-5.13.08-7.7.08a2.28,2.28,0,0,0-2.13.83"/><path class="cls-1" d="M377.42,46.6l1-4a1,1,0,0,1,1-1"/><path class="cls-1" d="M365.42,43.6l1-4a1.39,1.39,0,0,0,0-2"/><path class="cls-1" d="M352.42,40.6l1-3v-1"/></g></g></svg>